<svg id="Capa_1" enable-background="new 0 0 512 512" height="512" viewBox="0 0 512 512" width="512" xmlns="http://www.w3.org/2000/svg" xmlns:xlink="http://www.w3.org/1999/xlink"><linearGradient id="SVGID_1_" gradientUnits="userSpaceOnUse" x1="7.176" x2="426.291" y1="447.057" y2="27.943"><stop offset="0" stop-color="#fff3ee" stop-opacity="0"/><stop offset=".2938" stop-color="#ffeade" stop-opacity=".373"/><stop offset=".7874" stop-color="#ffd6bb"/></linearGradient><g><g><path d="m435.157 63.304c0 103.737 87.005 118.32 57.289 176.65-29.015 56.956-111.008 2.992-148.362 45.295-45.554 51.589 30.42 182.036-101.86 158.107-59.586-10.779-84.367 85.813-152.154 65.941-155.419-45.561 76.931-177.579-8.966-259.82-23.787-22.774-69.552-37.516-67.679-75.15 2.703-54.32 55.294-62.921 102.916-62.308 50.65.651 99.985-16.058 140.205-46.852 28.974-22.183 60.646-45.612 90.508-59.392 41.542-19.169 88.103 11.777 88.103 57.529z" fill="url(#SVGID_1_)"/></g><g><g><path d="m471.458 221.546-65.341-23.782v-87.149c0-11.046-8.954-20-20-20h-326.723c-11.046 0-20 8.954-20 20v283.255c0 11.046 8.954 20 20 20h225.253v49.15c0 5.523 4.477 10 10 10h163.648c5.523 0 10-4.477 10-10v-159.649c0-5.523-4.477-10-10-10h-7.659l23.81-65.417c.945-2.594-.393-5.464-2.988-6.408z" fill="#00c" opacity=".1"/><g><path d="m406.12 130.99v238.88c0 11.05-8.96 20-20 20h-326.73c-11.04 0-20-8.95-20-20v-238.88l43.947-5h278.836z" fill="#ffe8dc"/><g><g><path d="m117.371 258.214v-31.504c0-2.761 2.239-5 5-5h31.504c2.761 0 5 2.239 5 5v31.504c0 2.761-2.239 5-5 5h-31.504c-2.762 0-5-2.238-5-5z" fill="#ffd6bb"/><path d="m200.579 263.214h-31.504c-2.761 0-5-2.239-5-5v-31.504c0-2.761 2.239-5 5-5h31.504c2.761 0 5 2.239 5 5v31.504c0 2.762-2.239 5-5 5z" fill="#fff"/><path d="m247.283 263.214h-31.503c-2.761 0-5-2.239-5-5v-31.504c0-2.761 2.239-5 5-5h31.504c2.761 0 5 2.239 5 5v31.504c-.001 2.762-2.239 5-5.001 5z" fill="#ffd6bb"/><path d="m293.988 263.214h-31.504c-2.761 0-5-2.239-5-5v-31.504c0-2.761 2.239-5 5-5h31.504c2.761 0 5 2.239 5 5v31.504c0 2.762-2.239 5-5 5z" fill="#fff"/></g><g><path d="m107.17 309.919h-31.503c-2.761 0-5-2.239-5-5v-31.504c0-2.761 2.239-5 5-5h31.504c2.761 0 5 2.239 5 5v31.504c-.001 2.761-2.239 5-5.001 5z" fill="#ffd6bb"/><path d="m153.875 309.919h-31.504c-2.761 0-5-2.239-5-5v-31.504c0-2.761 2.239-5 5-5h31.504c2.761 0 5 2.239 5 5v31.504c0 2.761-2.239 5-5 5z" fill="#fff"/><path d="m200.579 309.919h-31.504c-2.761 0-5-2.239-5-5v-31.504c0-2.761 2.239-5 5-5h31.504c2.761 0 5 2.239 5 5v31.504c0 2.761-2.239 5-5 5z" fill="#ffd6bb"/><path d="m247.283 309.919h-31.503c-2.761 0-5-2.239-5-5v-31.504c0-2.761 2.239-5 5-5h31.504c2.761 0 5 2.239 5 5v31.504c-.001 2.761-2.239 5-5.001 5z" fill="#fff"/><path d="m293.988 309.919h-31.504c-2.761 0-5-2.239-5-5v-31.504c0-2.761 2.239-5 5-5h31.504c2.761 0 5 2.239 5 5v31.504c0 2.761-2.239 5-5 5z" fill="#ffd6bb"/></g><g><path d="m107.17 356.623h-31.503c-2.761 0-5-2.239-5-5v-31.504c0-2.761 2.239-5 5-5h31.504c2.761 0 5 2.239 5 5v31.504c-.001 2.761-2.239 5-5.001 5z" fill="#fff"/><path d="m153.875 356.623h-31.504c-2.761 0-5-2.239-5-5v-31.504c0-2.761 2.239-5 5-5h31.504c2.761 0 5 2.239 5 5v31.504c0 2.761-2.239 5-5 5z" fill="#ffd6bb"/><path d="m200.579 356.623h-31.504c-2.761 0-5-2.239-5-5v-31.504c0-2.761 2.239-5 5-5h31.504c2.761 0 5 2.239 5 5v31.504c0 2.761-2.239 5-5 5z" fill="#fff"/></g></g><g><g><path d="m186.293 351.582c-1.326 0-2.598-.527-3.536-1.464l-11.382-11.382c-1.953-1.953-1.953-5.119 0-7.071s5.118-1.952 7.071 0l7.847 7.847 19.228-19.229c1.953-1.952 5.118-1.952 7.071 0 1.953 1.953 1.953 5.119 0 7.071l-22.764 22.764c-.937.937-2.209 1.464-3.535 1.464z" fill="#4d4dff"/></g></g><path d="m395.287 234.36-63.44 36.627c-2.391 1.381-5.449.561-6.83-1.83l-46.153-79.94c-1.381-2.391-.561-5.449 1.83-6.83l63.44-36.627c2.391-1.381 5.449-.561 6.83 1.83l46.153 79.94c1.38 2.391.561 5.449-1.83 6.83z" fill="#ffd6bb"/><path d="m406.116 130.988v-44.374c0-11.046-8.954-20-20-20h-326.722c-11.046 0-20 8.954-20 20v44.373h366.722z" fill="#ff6c6c"/><path d="m94.21 111.686c-6.005 0-10.872-4.868-10.872-10.872v-21.178c0-6.005 4.868-10.872 10.872-10.872 6.005 0 10.872 4.868 10.872 10.872v21.177c0 6.005-4.868 10.873-10.872 10.873z" fill="#ff4d4d"/><path d="m351.3 111.686c-6.005 0-10.872-4.868-10.872-10.872v-21.178c0-6.005 4.868-10.872 10.872-10.872 6.005 0 10.872 4.868 10.872 10.872v21.177c.001 6.005-4.867 10.873-10.872 10.873z" fill="#ff4d4d"/><path d="m139.513 99.645c0 4.396 3.564 7.96 7.96 7.96h150.564c4.396 0 7.96-3.564 7.96-7.96 0-4.396-3.564-7.96-7.96-7.96h-150.564c-4.396.001-7.96 3.564-7.96 7.96z" fill="#fee"/><g fill="#ffd9d9"><path d="m94.21 91.686c-6.005 0-10.872-4.868-10.872-10.872v-21.178c0-6.005 4.868-10.872 10.872-10.872 6.005 0 10.872 4.868 10.872 10.872v21.177c0 6.005-4.868 10.873-10.872 10.873z"/><path d="m351.3 91.686c-6.005 0-10.872-4.868-10.872-10.872v-21.178c0-6.005 4.868-10.872 10.872-10.872 6.005 0 10.872 4.868 10.872 10.872v21.177c.001 6.005-4.867 10.873-10.872 10.873z"/></g></g><g><g><g><g><path d="m467.51 223.02-24.63 67.672c-.944 2.595-3.813 3.933-6.408 2.989l-68.843-25.051c-2.595-.944-3.933-3.814-2.989-6.409l24.63-67.671 16.85.131 48.351 17.594z" fill="#fff"/><path d="m395.29 234.36-25.97 14.99 15.62-42.91 12.18 21.09c1.38 2.39.56 5.45-1.83 6.83z" fill="#d9d9ff"/><path d="m467.505 223.024 6.941-19.07c.944-2.595-.393-5.464-2.988-6.409l-68.836-25.054c-2.595-.944-5.464.393-6.409 2.988l-6.941 19.07z" fill="#8383ff"/></g><path d="m423.933 241.704 10.057-4.69c2.503-1.167 3.586-4.142 2.419-6.645-1.168-2.502-4.142-3.585-6.645-2.419l-10.057 4.69-4.689-10.057c-1.167-2.502-4.141-3.585-6.645-2.419-2.503 1.167-3.586 4.142-2.419 6.645l4.689 10.057-10.057 4.69c-2.503 1.167-3.586 4.142-2.419 6.645.584 1.251 1.619 2.148 2.822 2.585 1.203.438 2.572.416 3.823-.167l10.057-4.69 4.689 10.057c.584 1.251 1.619 2.148 2.822 2.585 1.202.438 2.572.416 3.823-.167 2.503-1.167 3.586-4.142 2.419-6.645z" fill="#4d4dff"/></g><g><g><g><g><path d="m395.29 210.36-63.44 36.63c-2.391 1.381-5.449.561-6.83-1.83l-36.01-62.37 12.237-14.22 41.237-23.81 18.627-3.6 36.01 62.37c1.38 2.391.56 5.449-1.831 6.83z" fill="#fff"/><path d="m361.11 141.165-10.147-17.575c-1.381-2.391-4.439-3.211-6.83-1.83l-63.44 36.627c-2.391 1.381-3.211 4.439-1.83 6.83l10.147 17.575z" fill="#ff9d33"/></g><g><g><path d="m344.551 207.119c-1.148.663-2.513.843-3.794.5l-15.549-4.166c-2.667-.715-4.25-3.457-3.536-6.124.715-2.667 3.456-4.25 6.124-3.536l10.719 2.872 7.038-26.266c.715-2.667 3.456-4.25 6.124-3.536 2.667.715 4.25 3.457 3.536 6.124l-8.332 31.096c-.344 1.281-1.182 2.373-2.33 3.036z" fill="#4d4dff"/></g></g></g></g></g></g><g><g><g><path d="m458.295 449.02h-163.648c-5.523 0-10-4.477-10-10v-159.649c0-5.523 4.477-10 10-10h163.648c5.523 0 10 4.477 10 10v159.649c0 5.522-4.477 10-10 10z" fill="#8383ff"/><path d="m468.295 332.291v-52.92c0-5.523-4.477-10-10-10h-163.648c-5.523 0-10 4.477-10 10v52.92z" fill="#6c6cff"/><path d="m468.295 308.291v-28.92c0-5.523-4.477-10-10-10h-163.648c-5.523 0-10 4.477-10 10v28.92z" fill="#b3b3ff"/><g fill="#00c"><path d="m254.9 384.87h-195.51c-8.271 0-15-6.729-15-15v-283.26c0-8.271 6.729-15 15-15h18.947v9.203c0 8.752 7.12 15.873 15.872 15.873s15.873-7.121 15.873-15.873v-9.203h225.346v9.203c0 8.752 7.121 15.873 15.873 15.873s15.873-7.121 15.873-15.873v-9.203h18.947c8.271 0 15 6.729 15 15v57.01c0 2.761 2.239 5 5 5s5-2.239 5-5v-57.01c0-13.785-11.215-25-25-25h-18.947v-1.974c0-8.752-7.121-15.872-15.873-15.872s-15.873 7.12-15.873 15.872v1.974h-225.346v-1.974c0-8.752-7.121-15.872-15.873-15.872s-15.872 7.12-15.872 15.872v1.974h-18.947c-13.785 0-25 11.215-25 25v283.26c0 13.785 11.215 25 25 25h195.51c2.761 0 5-2.239 5-5s-2.239-5-5-5zm96.4-331.106c3.238 0 5.873 2.634 5.873 5.872v21.177c0 3.238-2.634 5.873-5.873 5.873s-5.873-2.634-5.873-5.873v-21.177c.001-3.238 2.635-5.872 5.873-5.872zm-257.091 0c3.238 0 5.873 2.634 5.873 5.872v21.177c0 3.238-2.634 5.873-5.873 5.873-3.238 0-5.872-2.634-5.872-5.873v-21.177c0-3.238 2.635-5.872 5.872-5.872z"/><path d="m473.17 192.852-68.844-25.061c-5.167-1.878-10.915.8-12.815 5.979l-2.244 6.165-33.974-58.844c-1.335-2.313-3.492-3.968-6.072-4.66-2.579-.691-5.274-.336-7.588.999l-63.439 36.627c-2.313 1.335-3.968 3.492-4.66 6.072s-.336 5.275.999 7.588l46.153 79.94c1.851 3.204 5.218 4.997 8.677 4.997 1.695 0 3.413-.431 4.983-1.337l36.639-21.154-11.045 30.351c-.462 1.273-.645 2.58-.585 3.856h-64.708c-8.271 0-15 6.729-15 15v159.65c0 8.271 6.729 15 15 15h163.648c8.271 0 15-6.729 15-15v-159.649c0-8.271-6.729-15-15-15h-.514l21.37-58.715c1.879-5.18-.805-10.925-5.981-12.804zm-143.823 49.805-46.153-79.94 63.44-36.627 46.159 79.936-.005.003zm133.948 36.714v159.649c0 2.757-2.243 5-5 5h-163.649c-2.757 0-5-2.243-5-5v-159.649c0-2.757 2.243-5 5-5h163.648c2.758 0 5.001 2.243 5.001 5zm-16.156-15h-76.892c-.282-.174-.585-.323-.908-.441l15.119-41.545 13.329-7.695c2.313-1.335 3.968-3.492 4.659-6.072s.336-5.275-.999-7.588l-5.652-9.789 5.114-14.053 68.842 25.052z"/></g></g><g><path d="m388.665 350.388h-24.389c-3.314 0-6-2.686-6-6v-47.291c0-3.314 2.686-6 6-6h24.389c3.314 0 6 2.686 6 6v47.291c0 3.314-2.686 6-6 6z" fill="#4d4dff"/><path d="m376.471 338.935c-3.469 0-6.282-2.812-6.282-6.282v-8.698c0-3.469 2.813-6.282 6.282-6.282 3.469 0 6.282 2.812 6.282 6.282v8.698c0 3.47-2.813 6.282-6.282 6.282z" fill="#8383ff"/></g><g fill="#4d4dff"><g><circle cx="304.043" cy="320.742" r="5"/><circle cx="334.392" cy="320.742" r="5"/></g><g><circle cx="417.399" cy="320.742" r="5"/><circle cx="447.748" cy="320.742" r="5"/></g></g></g></g></g><g><g><path d="m92.09 207.107c-2.761 0-5-2.239-5-5v-30.466h-1.423c-2.761 0-5-2.239-5-5s2.239-5 5-5h6.423c2.761 0 5 2.239 5 5v35.466c0 2.761-2.239 5-5 5z" fill="#ff9d33"/></g><g><path d="m133.053 207.107h-21.364c-2.122 0-4.012-1.339-4.716-3.341s-.068-4.23 1.586-5.559c5.608-4.503 15.254-13.46 17.264-18.323.833-2.016.693-4.173-.375-5.771-.596-.891-1.739-1.954-3.799-1.954-2.735 0-4.96 2.225-4.96 4.96 0 2.761-2.239 5-5 5s-5-2.239-5-5c0-8.249 6.711-14.96 14.96-14.96 4.979 0 9.394 2.331 12.111 6.396 2.928 4.378 3.416 10.041 1.305 15.148-1.745 4.221-6.077 9.206-10.304 13.403h8.292c2.761 0 5 2.239 5 5s-2.239 5.001-5 5.001z" fill="#ff9d33"/></g></g><g><g><path d="m158.489 187.537h24.142c2.761 0 5-2.239 5-5s-2.239-5-5-5h-24.142c-2.762 0-5 2.239-5 5s2.238 5 5 5z" fill="#8383ff"/></g><g><path d="m158.489 206.45h51.94c2.761 0 5-2.239 5-5s-2.239-5-5-5h-51.94c-2.762 0-5 2.239-5 5s2.238 5 5 5z" fill="#8383ff"/></g></g></g><g><path d="m300.784 51.764c-2.761 0-5-2.239-5-5 0-3.492-2.841-6.333-6.333-6.333-2.761 0-5-2.239-5-5s2.239-5 5-5c3.492 0 6.333-2.841 6.333-6.333 0-2.761 2.239-5 5-5s5 2.239 5 5c0 3.492 2.841 6.333 6.333 6.333 2.761 0 5 2.239 5 5s-2.239 5-5 5c-3.492 0-6.333 2.841-6.333 6.333 0 2.761-2.239 5-5 5z" fill="#ff6c6c"/></g><g><path d="m468.295 125.475c-2.761 0-5-2.239-5-5 0-3.492-2.841-6.333-6.333-6.333-2.761 0-5-2.239-5-5s2.239-5 5-5c3.492 0 6.333-2.841 6.333-6.333 0-2.761 2.239-5 5-5s5 2.239 5 5c0 3.492 2.841 6.333 6.333 6.333 2.761 0 5 2.239 5 5s-2.239 5-5 5c-3.492 0-6.333 2.841-6.333 6.333 0 2.761-2.239 5-5 5z" fill="#6c6cff"/></g><g><path d="m203.754 447.14c-2.761 0-5-2.239-5-5 0-3.492-2.841-6.333-6.333-6.333-2.761 0-5-2.239-5-5s2.239-5 5-5c3.492 0 6.333-2.841 6.333-6.333 0-2.761 2.239-5 5-5s5 2.239 5 5c0 3.492 2.841 6.333 6.333 6.333 2.761 0 5 2.239 5 5s-2.239 5-5 5c-3.492 0-6.333 2.841-6.333 6.333 0 2.761-2.239 5-5 5z" fill="#6c6cff"/></g><g><path d="m247.484 456.806c-1.28 0-2.559-.488-3.536-1.464l-10.5-10.5c-1.953-1.953-1.953-5.119 0-7.071l10.5-10.5c1.953-1.952 5.118-1.952 7.071 0l10.5 10.5c1.953 1.953 1.953 5.119 0 7.071l-10.5 10.5c-.976.976-2.255 1.464-3.535 1.464zm-3.429-15.5 3.429 3.429 3.429-3.429-3.429-3.429z" fill="#ff9d33"/></g><g><path d="m139.513 50.93c-1.28 0-2.559-.488-3.536-1.464l-10.5-10.5c-1.953-1.953-1.953-5.119 0-7.071l10.5-10.5c1.953-1.952 5.118-1.952 7.071 0l10.5 10.5c1.953 1.953 1.953 5.119 0 7.071l-10.5 10.5c-.976.976-2.255 1.464-3.535 1.464zm-3.429-15.5 3.429 3.429 3.429-3.429-3.429-3.429z" fill="#ff9d33"/></g></g></g></svg>