<?xml version="1.0"?>
<svg xmlns="http://www.w3.org/2000/svg" xmlns:xlink="http://www.w3.org/1999/xlink" xmlns:svgjs="http://svgjs.com/svgjs" version="1.1" width="512" height="512" x="0" y="0" viewBox="0 0 512 512" style="enable-background:new 0 0 512 512" xml:space="preserve" class=""><g>
<g xmlns="http://www.w3.org/2000/svg">
	<g>
		<g>
			<path d="M391.542,120.458c2.083,2.083,4.813,3.125,7.542,3.125c2.729,0,5.458-1.042,7.542-3.125l8.073-8.083     c7.604-7.583,11.969-18.104,11.969-28.875c0-22.521-18.323-40.833-40.833-40.833c-10.927,0-21.177,4.25-28.875,11.958     l-8.083,8.083c-4.167,4.167-4.167,10.917,0,15.083L391.542,120.458z" fill="#0e08d3" data-original="#000000" style="" class=""/>
			<path d="M318.708,92.875l-91.583,91.563c-1.49,1.479-2.5,3.375-2.917,5.458l-10.667,53.354c-0.698,3.479,0.396,7.104,2.917,9.625     c2.021,2.021,4.74,3.125,7.542,3.125c0.698,0,1.396-0.063,2.094-0.208l53.313-10.667c2.063-0.417,3.958-1.417,5.448-2.917     l91.604-91.583c2-2,3.125-4.708,3.125-7.542c0-2.833-1.125-5.542-3.125-7.542l-42.667-42.667     C329.625,88.708,322.875,88.708,318.708,92.875z" fill="#0e08d3" data-original="#000000" style="" class=""/>
			<path d="M418.979,147c-3.896-1.417-8.281-0.458-11.208,2.479L299.938,257.292c-4.49,4.479-10.135,7.521-16.344,8.75     l-53.323,10.667c-10.708,2.125-21.385-1.25-28.896-8.75c-7.583-7.583-10.854-18.375-8.76-28.896l0.906-4.563     c0.635-3.188-0.219-6.5-2.323-8.979c-13.427-15.854-20.531-34.813-20.531-54.854c0-47.063,38.281-85.333,85.333-85.333     c8.469,0,17.271,1.563,26.917,4.792c3.823,1.292,8.063,0.313,10.927-2.563l48.573-48.458c2.354-2.354,3.479-5.667,3.031-8.979     c-0.448-3.292-2.406-6.188-5.302-7.833C314.469,7.708,285.375,0,256,0C161.896,0,85.333,76.563,85.333,170.667     c0,28.271,7.073,56.271,20.49,81.104L246.667,506.5c1.875,3.396,5.448,5.5,9.333,5.5s7.458-2.104,9.333-5.5l140.896-254.833     c13.365-24.729,20.438-52.729,20.438-81c0-4.896-0.323-9.75-0.729-14.542C425.594,152,422.885,148.438,418.979,147z" fill="#0e08d3" data-original="#000000" style="" class=""/>
		</g>
	</g>
</g>
<g xmlns="http://www.w3.org/2000/svg">
</g>
<g xmlns="http://www.w3.org/2000/svg">
</g>
<g xmlns="http://www.w3.org/2000/svg">
</g>
<g xmlns="http://www.w3.org/2000/svg">
</g>
<g xmlns="http://www.w3.org/2000/svg">
</g>
<g xmlns="http://www.w3.org/2000/svg">
</g>
<g xmlns="http://www.w3.org/2000/svg">
</g>
<g xmlns="http://www.w3.org/2000/svg">
</g>
<g xmlns="http://www.w3.org/2000/svg">
</g>
<g xmlns="http://www.w3.org/2000/svg">
</g>
<g xmlns="http://www.w3.org/2000/svg">
</g>
<g xmlns="http://www.w3.org/2000/svg">
</g>
<g xmlns="http://www.w3.org/2000/svg">
</g>
<g xmlns="http://www.w3.org/2000/svg">
</g>
<g xmlns="http://www.w3.org/2000/svg">
</g>
</g></svg>
