<svg id="Capa_1" enable-background="new 0 0 512 512" height="512" viewBox="0 0 512 512" width="512" xmlns="http://www.w3.org/2000/svg" xmlns:xlink="http://www.w3.org/1999/xlink"><linearGradient id="SVGID_1_" gradientUnits="userSpaceOnUse" x1="145.061" x2="471.768" y1="482.976" y2="93.622"><stop offset="0" stop-color="#fff3ee" stop-opacity="0"/><stop offset=".2938" stop-color="#ffeade" stop-opacity=".373"/><stop offset=".7874" stop-color="#ffd6bb"/></linearGradient><g><g><path d="m450.496 371.149c-26.332-88.911-118.23-178.575-54.903-275.384 12.114-18.519 10.795-49.506.723-62.602-63.291-82.293-203.076 2.559-202.086 102.088.651 65.445-47.727 106.413-90.363 148.775-226.825 194.646 421.372 353.548 346.629 87.123z" fill="url(#SVGID_1_)"/></g><path d="m450.404 309.191v-120.145h-75.437v-14.407c0-4.917-3.575-9.105-8.431-9.876l-22.673-3.602c-1.699-5.508-3.905-10.793-6.557-15.806l13.492-18.588c2.888-3.979 2.455-9.468-1.022-12.945l-19.307-19.307c-3.477-3.477-8.966-3.91-12.945-1.022l-18.588 13.492c-5.013-2.653-10.297-4.859-15.806-6.557l-3.602-22.673c-.771-4.856-4.959-8.431-9.876-8.431h-27.304c-4.917 0-9.105 3.575-9.876 8.431l-3.602 22.671c-5.509 1.699-10.794 3.905-15.807 6.558l-18.587-13.491c-3.979-2.888-9.468-2.455-12.945 1.022l-19.307 19.307c-1.7 1.7-2.666 3.88-2.879 6.13h-98.96v189.24h-29.827v168.486c0 2.761 2.239 5 5 5h119.524c2.761 0 5-2.239 5-5v-49.129h191.836v49.129c0 2.761 2.239 5 5 5h119.524c2.761 0 5-2.239 5-5v-168.487zm-194.409-168.962c26.549 0 48.066 21.518 48.066 48.066 0 .252-.015.499-.019.75h-56.422l-29.859-29.859c8.78-11.518 22.637-18.957 38.234-18.957z" fill="#00c" opacity=".1"/><path d="m247.62 165.046-66.165-66.166c-1.875-1.875-4.419-2.929-7.071-2.929h-104c-5.523 0-10 4.477-10 10v288.597c0 5.523 4.477 10 10 10h370.02c5.523 0 10-4.477 10-10v-219.502c0-5.523-4.477-10-10-10z" fill="#ffab66"/><g><path d="m367.73 165.047h-69.66c3.82 6.89 5.99 14.81 5.99 23.25 0 26.54-21.52 48.05-48.07 48.05-26.53 0-48.05-21.51-48.05-48.05 0-17.08 8.91-32.08 22.32-40.61l-48.81-48.81c-.73-.74-1.56-1.34-2.47-1.81l-16.76 16.75c-3.47 3.48-3.91 8.97-1.02 12.95l13.49 18.59c-2.65 5.01-4.85 10.29-6.55 15.8l-22.68 3.61c-4.85.77-8.43 4.95-8.43 9.87v27.31c0 4.91 3.58 9.1 8.43 9.87l22.68 3.6c1.69 5.51 3.9 10.8 6.55 15.81l-13.49 18.59c-2.89 3.98-2.45 9.47 1.02 12.94l19.31 19.31c3.48 3.48 8.97 3.91 12.95 1.02l18.58-13.49c5.02 2.65 10.3 4.86 15.81 6.56l3.6 22.67c.77 4.86 4.96 8.43 9.88 8.43h27.3c4.92 0 9.11-3.57 9.88-8.43l3.6-22.67c5.51-1.7 10.79-3.91 15.81-6.56l18.58 13.49c3.98 2.89 9.47 2.46 12.95-1.02l19.31-19.31c3.47-3.47 3.91-8.96 1.02-12.94l-13.49-18.59c2.65-5.01 4.86-10.3 6.56-15.81l22.67-3.6c4.85-.77 8.43-4.96 8.43-9.87v-27.31c0-4.51-3-8.39-7.24-9.59z" fill="#ff9d33"/></g><g><path d="m351.918 400.934h-191.836c-2.761 0-5-2.239-5-5s2.239-5 5-5h191.836c2.761 0 5 2.239 5 5s-2.239 5-5 5z" fill="#ff9d33"/></g><path d="m366.537 140.762-22.673-3.602c-1.699-5.508-3.905-10.793-6.557-15.806l13.492-18.588c2.888-3.979 2.455-9.468-1.022-12.945l-19.307-19.307c-3.477-3.477-8.966-3.91-12.945-1.022l-18.588 13.492c-5.013-2.653-10.297-4.859-15.806-6.557l-3.602-22.673c-.771-4.856-4.959-8.431-9.876-8.431h-27.304c-4.917 0-9.105 3.575-9.876 8.431l-3.602 22.671c-5.509 1.699-10.794 3.905-15.807 6.558l-18.587-13.491c-3.979-2.888-9.468-2.455-12.945 1.022l-19.307 19.307c-3.477 3.477-3.91 8.966-1.022 12.945l13.492 18.589c-2.652 5.012-4.858 10.297-6.557 15.805l-22.674 3.602c-4.856.771-8.431 4.959-8.431 9.876v27.304c0 4.917 3.575 9.105 8.431 9.876l22.672 3.602c1.699 5.508 3.905 10.793 6.557 15.806l-13.492 18.588c-2.888 3.979-2.455 9.468 1.022 12.945l19.307 19.307c3.477 3.477 8.966 3.91 12.945 1.022l18.588-13.492c5.013 2.653 10.298 4.859 15.806 6.557l3.602 22.673c.771 4.856 4.959 8.431 9.876 8.431h27.304c4.917 0 9.105-3.575 9.876-8.431l3.602-22.674c5.508-1.699 10.792-3.905 15.805-6.557l18.589 13.492c3.979 2.888 9.468 2.455 12.945-1.022l19.307-19.307c3.477-3.477 3.91-8.966 1.022-12.945l-13.491-18.587c2.653-5.013 4.859-10.298 6.558-15.807l22.672-3.602c4.856-.771 8.431-4.959 8.431-9.876v-27.304c.001-4.916-3.574-9.103-8.43-9.875zm-62.476 23.534c0 26.537-21.518 48.054-48.066 48.054-26.537 0-48.054-21.518-48.054-48.054 0-26.549 21.518-48.066 48.054-48.066 26.548-.001 48.066 21.517 48.066 48.066z" fill="#9494ff"/><path d="m253.445 260.258-4.005-25.208c2.159.199 4.345.3 6.554.3 2.212 0 4.403-.102 6.564-.3l-4.005 25.208zm47.923-41.315c3.371-2.803 6.481-5.913 9.284-9.283l15.013 20.684-3.612 3.612zm-115.034 11.4 15.012-20.683c2.803 3.37 5.913 6.48 9.283 9.283l-20.683 15.012zm-26.302-63.498v-5.109l25.208-4.005c-.199 2.161-.3 4.352-.3 6.564 0 2.209.102 4.396.3 6.554zm166.729 4.004c.199-2.159.3-4.344.3-6.553 0-2.212-.102-4.402-.301-6.564l25.208 4.004v5.108zm-16.11-51.926c-2.803-3.371-5.913-6.48-9.284-9.284l20.686-15.014 3.612 3.612zm-124.317-20.686 3.613-3.613 20.684 15.013c-3.37 2.803-6.48 5.914-9.283 9.285zm76.225-4.707c-2.161-.199-4.352-.301-6.564-.301-2.209 0-4.395.101-6.553.3l4.004-25.207h5.108z" fill="#b3b3ff"/><g><g><g><path d="m471.442 458.677h-109.524c-5.523 0-10-4.477-10-10v-153.486c0-5.523 4.477-10 10-10h109.524c5.523 0 10 4.477 10 10v153.486c0 5.523-4.477 10-10 10z" fill="#fff"/><g><g><path d="m405.971 325.685h-18.583c-2.761 0-5-2.239-5-5s2.239-5 5-5h18.583c2.761 0 5 2.239 5 5s-2.238 5-5 5z" fill="#ff6c6c"/></g><g><path d="m445.971 346.067h-58.583c-2.761 0-5-2.239-5-5s2.239-5 5-5h58.583c2.761 0 5 2.239 5 5s-2.238 5-5 5z" fill="#ffab66"/></g><g><path d="m445.971 366.448h-58.583c-2.761 0-5-2.239-5-5s2.239-5 5-5h58.583c2.761 0 5 2.239 5 5s-2.238 5-5 5z" fill="#ffab66"/></g><g><path d="m445.971 407.618h-40.583c-2.761 0-5-2.239-5-5s2.239-5 5-5h40.583c2.761 0 5 2.239 5 5s-2.238 5-5 5z" fill="#ffab66"/><g fill="#ff6c6c"><circle cx="387.388" cy="402.618" r="5"/><circle cx="387.388" cy="423" r="5"/></g></g><g><path d="m445.971 428h-40.583c-2.761 0-5-2.239-5-5s2.239-5 5-5h40.583c2.761 0 5 2.239 5 5s-2.238 5-5 5z" fill="#ffab66"/></g></g></g><g><path d="m150.082 458.677h-109.524c-5.523 0-10-4.477-10-10v-153.486c0-5.523 4.477-10 10-10h109.524c5.523 0 10 4.477 10 10v153.486c0 5.523-4.477 10-10 10z" fill="#fff"/><g><g><path d="m84.611 325.685h-18.583c-2.761 0-5-2.239-5-5s2.239-5 5-5h18.583c2.761 0 5 2.239 5 5s-2.239 5-5 5z" fill="#ff6c6c"/></g><g><path d="m124.611 346.067h-58.583c-2.761 0-5-2.239-5-5s2.239-5 5-5h58.583c2.761 0 5 2.239 5 5s-2.239 5-5 5z" fill="#ffab66"/></g><g><path d="m124.611 366.448h-58.583c-2.761 0-5-2.239-5-5s2.239-5 5-5h58.583c2.761 0 5 2.239 5 5s-2.239 5-5 5z" fill="#ffab66"/></g><g><path d="m124.611 407.618h-40.583c-2.761 0-5-2.239-5-5s2.239-5 5-5h40.583c2.761 0 5 2.239 5 5s-2.239 5-5 5z" fill="#ffab66"/><g fill="#ff6c6c"><circle cx="66.028" cy="402.618" r="5"/><circle cx="66.028" cy="423" r="5"/></g></g><g><path d="m124.611 428h-40.583c-2.761 0-5-2.239-5-5s2.239-5 5-5h40.583c2.761 0 5 2.239 5 5s-2.239 5-5 5z" fill="#ffab66"/></g></g></g></g><g fill="#00c"><path d="m60.384 260.856c2.761 0 5-2.239 5-5v-149.905c0-2.757 2.243-5 5-5h84.459c.473 1.664 1.239 3.274 2.312 4.752l11.695 16.113c-1.727 3.538-3.238 7.181-4.517 10.885l-19.655 3.123c-7.328 1.164-12.646 7.394-12.646 14.814v27.304c0 7.42 5.319 13.65 12.646 14.814l19.654 3.123c1.278 3.706 2.79 7.349 4.517 10.886l-11.695 16.112c-4.358 6.005-3.714 14.171 1.533 19.418l19.308 19.307c5.247 5.247 13.413 5.891 19.417 1.532l16.113-11.695c3.537 1.728 7.181 3.239 10.886 4.518l3.123 19.654c1.164 7.328 7.395 12.646 14.814 12.646h27.305c7.419 0 13.65-5.318 14.814-12.646l3.123-19.656c3.705-1.278 7.348-2.79 10.885-4.517l16.113 11.695c6.005 4.359 14.171 3.715 19.418-1.532l19.307-19.307c5.247-5.247 5.891-13.413 1.533-19.418l-11.694-16.112c1.727-3.537 3.239-7.181 4.518-10.887l19.653-3.123c7.328-1.164 12.646-7.394 12.646-14.814v-27.304c0-7.42-5.319-13.65-12.646-14.814l-19.654-3.123c-1.278-3.705-2.79-7.348-4.517-10.886l11.695-16.113c4.358-6.005 3.714-14.171-1.533-19.418l-19.307-19.307c-5.247-5.246-13.412-5.891-19.417-1.533l-16.113 11.695c-3.538-1.727-7.18-3.239-10.886-4.517l-3.123-19.654c-1.164-7.328-7.394-12.646-14.814-12.646h-27.305c-7.42 0-13.65 5.319-14.814 12.646l-3.122 19.653c-3.706 1.278-7.35 2.791-10.887 4.518l-16.112-11.694c-6.005-4.359-14.171-3.714-19.417 1.533l-19.307 19.307c-1.383 1.383-2.436 2.971-3.172 4.666h-85.134c-8.271 0-15 6.729-15 15v149.905c0 2.764 2.239 5.002 5 5.002zm105.375-167.5 19.307-19.307c1.748-1.75 4.47-1.964 6.472-.511l18.587 13.491c1.543 1.121 3.59 1.266 5.276.373 4.782-2.53 9.809-4.616 14.941-6.199 1.822-.562 3.166-2.11 3.465-3.993l3.602-22.671c.388-2.443 2.465-4.216 4.938-4.216h27.305c2.473 0 4.55 1.773 4.938 4.216l3.602 22.672c.299 1.882 1.643 3.431 3.464 3.993 5.132 1.583 10.159 3.669 14.941 6.199 1.686.892 3.732.748 5.275-.373l18.588-13.492c2.001-1.452 4.724-1.237 6.472.511l19.307 19.307c1.749 1.749 1.964 4.471.511 6.473l-13.492 18.588c-1.12 1.543-1.265 3.59-.373 5.275 2.531 4.783 4.616 9.81 6.199 14.941.562 1.822 2.11 3.166 3.993 3.464l22.673 3.602c2.443.388 4.216 2.465 4.216 4.938v27.304c0 2.473-1.773 4.55-4.216 4.938l-22.671 3.602c-1.882.299-3.431 1.643-3.993 3.464-1.583 5.133-3.669 10.16-6.2 14.941-.892 1.686-.748 3.732.373 5.276l13.491 18.587c1.453 2.001 1.238 4.724-.511 6.473l-19.307 19.307c-1.75 1.749-4.471 1.963-6.473.511l-18.589-13.492c-1.544-1.121-3.59-1.266-5.276-.373-4.781 2.53-9.807 4.615-14.939 6.198-1.822.562-3.166 2.11-3.464 3.993l-3.602 22.674c-.388 2.442-2.465 4.215-4.938 4.215h-27.305c-2.473 0-4.55-1.773-4.938-4.215l-3.602-22.673c-.299-1.883-1.643-3.432-3.464-3.993-5.132-1.583-10.159-3.668-14.94-6.199-.735-.389-1.538-.581-2.338-.581-1.036 0-2.067.321-2.938.954l-18.589 13.492c-2.001 1.453-4.724 1.237-6.472-.511l-19.307-19.307c-1.749-1.749-1.964-4.471-.511-6.473l13.492-18.588c1.12-1.543 1.265-3.59.373-5.275-2.53-4.782-4.616-9.809-6.199-14.941-.562-1.822-2.111-3.166-3.993-3.464l-22.672-3.602c-2.443-.388-4.216-2.465-4.216-4.938v-27.304c0-2.473 1.773-4.55 4.216-4.938l22.674-3.602c1.883-.299 3.432-1.643 3.993-3.464 1.583-5.131 3.668-10.158 6.198-14.94.892-1.686.747-3.732-.373-5.275l-13.492-18.589c-1.453-2.001-1.238-4.724.511-6.473z"/><path d="m255.995 217.35c29.261 0 53.066-23.8 53.066-53.055 0-29.261-23.805-53.066-53.066-53.066-29.254 0-53.054 23.805-53.054 53.066-.001 29.255 23.799 53.055 53.054 53.055zm0-96.121c22.312 0 40.713 17.057 42.854 38.816h-49.158l-25.133-25.133c7.864-8.41 19.043-13.683 31.437-13.683zm-37.433 21.83 25.522 25.523c.938.938 2.209 1.464 3.536 1.464h51.045c-2.822 21.03-20.875 37.304-42.67 37.304-23.74 0-43.054-19.314-43.054-43.055-.001-7.719 2.051-14.964 5.621-21.236z"/><path d="m471.442 280.191h-16.038v-105.145c0-8.271-6.729-15-15-15h-37.094c-2.761 0-5 2.239-5 5s2.239 5 5 5h37.095c2.757 0 5 2.243 5 5v105.145h-83.486c-8.271 0-15 6.729-15 15v71.743h-181.837v-71.743c0-8.271-6.729-15-15-15h-109.524c-8.271 0-15 6.729-15 15v153.486c0 8.271 6.729 15 15 15h109.524c8.271 0 15-6.729 15-15v-39.129h181.836v39.129c0 8.271 6.729 15 15 15h109.524c8.271 0 15-6.729 15-15v-153.486c0-8.271-6.729-15-15-15zm-316.36 168.486c0 2.757-2.243 5-5 5h-109.524c-2.757 0-5-2.243-5-5v-153.486c0-2.757 2.243-5 5-5h109.524c2.757 0 5 2.243 5 5zm10-49.129v-22.614h181.836v22.614zm311.36 49.129c0 2.757-2.243 5-5 5h-109.524c-2.757 0-5-2.243-5-5v-153.486c0-2.757 2.243-5 5-5h109.524c2.757 0 5 2.243 5 5z"/></g></g><g><path d="m432.404 132.563c-2.761 0-5-2.239-5-5 0-3.492-2.841-6.333-6.333-6.333-2.761 0-5-2.239-5-5s2.239-5 5-5c3.492 0 6.333-2.841 6.333-6.333 0-2.761 2.239-5 5-5s5 2.239 5 5c0 3.492 2.841 6.333 6.333 6.333 2.761 0 5 2.239 5 5s-2.239 5-5 5c-3.492 0-6.333 2.841-6.333 6.333 0 2.761-2.238 5-5 5z" fill="#ffab66"/></g><g><path d="m198.482 486.513c-2.761 0-5-2.239-5-5 0-3.492-2.841-6.333-6.333-6.333-2.761 0-5-2.239-5-5s2.239-5 5-5c3.492 0 6.333-2.841 6.333-6.333 0-2.761 2.239-5 5-5s5 2.239 5 5c0 3.492 2.841 6.333 6.333 6.333 2.761 0 5 2.239 5 5s-2.239 5-5 5c-3.492 0-6.333 2.841-6.333 6.333 0 2.761-2.238 5-5 5z" fill="#ff6c6c"/></g><g><path d="m102.211 69.487c-2.761 0-5-2.239-5-5 0-3.492-2.841-6.333-6.333-6.333-2.761 0-5-2.239-5-5s2.239-5 5-5c3.492 0 6.333-2.841 6.333-6.333 0-2.761 2.239-5 5-5s5 2.239 5 5c0 3.492 2.841 6.333 6.333 6.333 2.761 0 5 2.239 5 5s-2.239 5-5 5c-3.492 0-6.333 2.841-6.333 6.333 0 2.762-2.239 5-5 5z" fill="#ff6c6c"/></g><g><path d="m181.637 51.765c-1.28 0-2.559-.488-3.536-1.464l-5.464-5.464-5.464 5.464c-1.953 1.952-5.118 1.952-7.071 0-1.953-1.953-1.953-5.119 0-7.071l9-9c1.953-1.952 5.118-1.952 7.071 0l9 9c1.953 1.953 1.953 5.119 0 7.071-.977.976-2.256 1.464-3.536 1.464z" fill="#8383ff"/></g><g><path d="m244.905 450.937c-1.28 0-2.559-.488-3.536-1.464l-5.464-5.464-5.464 5.464c-1.953 1.952-5.118 1.952-7.071 0-1.953-1.953-1.953-5.119 0-7.071l9-9c1.953-1.952 5.118-1.952 7.071 0l9 9c1.953 1.953 1.953 5.119 0 7.071-.977.976-2.256 1.464-3.536 1.464z" fill="#ffab66"/></g><g fill="#ff7300"><g><circle cx="419.23" cy="205.457" r="5"/><circle cx="419.23" cy="225.08" r="5"/><circle cx="419.23" cy="244.703" r="5"/></g><g><circle cx="92.77" cy="205.457" r="5"/><circle cx="92.77" cy="225.08" r="5"/><circle cx="92.77" cy="244.703" r="5"/></g></g></g></svg>