<svg id="Capa_1" enable-background="new 0 0 512 512" height="512" viewBox="0 0 512 512" width="512" xmlns="http://www.w3.org/2000/svg" xmlns:xlink="http://www.w3.org/1999/xlink"><linearGradient id="SVGID_1_" gradientUnits="userSpaceOnUse" x1="142.695" x2="483.152" y1="378.735" y2="38.277"><stop offset="0" stop-color="#ffd9d9" stop-opacity="0"/><stop offset=".9981" stop-color="#ffb3b3"/></linearGradient><g><g><path d="m332.949 41.432c-97.53 113.013-309.476-10.595-316.362 175.275-3.867 104.373 121.584 55.246 165.606 137.647 23.897 44.73 51.823 135.936 98.185 151.902 100.806 34.714 177.807-94.839 92.577-202.577-16.644-21.04-14.321-45.002 3.756-66.084 28.335-33.047 72.817-48.519 97.081-83.61 72.103-104.28-51.061-216.588-140.843-112.553z" fill="url(#SVGID_1_)"/></g><g><g><g><path d="m427.836 205.329c-1.65-1.1-3.59-1.69-5.58-1.69h-40.437c-1.98 0-3.92.59-5.57 1.69-5.599 3.739-10.671 8.198-15.112 13.228v-118.91c0-16.569-13.431-30-30-30h-184.471c-16.569 0-30 13.431-30 30v252.95c-30.661 8.704-53.129 36.888-53.129 70.339 0 40.39 32.742 73.132 73.132 73.132 22.292 0 42.241-9.987 55.654-25.715h138.814c16.569 0 30-13.431 30-30v-119.112c4.441 5.03 9.513 9.489 15.112 13.228 1.65 1.1 3.59 1.69 5.57 1.69h40.437c1.99 0 3.93-.59 5.58-1.69 20.82-13.91 34.54-37.64 34.54-64.57s-13.72-50.66-34.54-64.57zm-11.51 89.62c-10.01 0-18.12-11.21-18.12-25.05 0-13.83 8.11-25.05 18.12-25.05s18.12 11.22 18.12 25.05c0 13.84-8.11 25.05-18.12 25.05z" fill="#00c" opacity=".1"/><g><path d="m361.14 75.65v340.7c0 16.57-13.43 30-30 30h-184.47c-16.57 0-30-13.43-30-30v-340.7c0-16.57 13.43-30 30-30h184.47c16.57 0 30 13.43 30 30z" fill="#ff6c6c"/><path d="m346.11 244.09h-124.14v34h23.89v12.62c0 2.76 2.24 5 5 5h23.35c2.77 0 5-2.24 5-5v-12.62h21.25v12.62c0 2.76 2.24 5 5 5h40.65c3.35 9.51 8.49 18.16 15.03 25.56v-102.74c-6.54 7.4-11.68 16.05-15.03 25.56z" fill="#ff4d4d"/><path d="m341.139 75.65v340.7c0 5.52-4.49 10-10 10h-184.47c-5.523 0-10-4.477-10-10v-340.7c0-5.523 4.477-10 10-10h33.717c3.194 0 6.196 1.526 8.079 4.106l11.539 15.817c1.883 2.581 4.885 4.106 8.079 4.106h61.634c3.194 0 6.196-1.526 8.079-4.106l11.539-15.817c1.883-2.581 4.885-4.106 8.079-4.106h33.727c5.508 0 9.998 4.48 9.998 10z" fill="#fff"/><g><path d="m136.66 201.67h204.48v108.66h-204.48z" fill="#d9d9ff"/></g><path d="m221.97 244.09v34h23.89v12.62c0 2.76 2.24 5 5 5h23.35c2.77 0 5-2.24 5-5v-12.62h21.25v12.62c0 2.76 2.24 5 5 5h35.68v-51.62z" fill="#b3b3ff"/></g><g><g><path d="m255.84 206.67v98.66c0 2.76-2.24 5-5 5h-23.87c-2.77 0-5-2.24-5-5v-98.66c0-2.76 2.23-5 5-5h23.87c2.76 0 5 2.24 5 5z" fill="#6c6cff"/></g><path d="m221.97 244.09v34h23.89v12.62c0 2.76 2.24 5 5 5h4.98v-51.62z" fill="#4d4dff"/></g><g><g><path d="m341.709 245.899c0 26.93 13.71 50.66 34.54 64.57 1.65 1.1 3.59 1.69 5.57 1.69h40.437c1.99 0 3.93-.59 5.58-1.69 20.82-13.91 34.54-37.64 34.54-64.57s-13.72-50.66-34.54-64.57c-1.65-1.1-3.59-1.69-5.58-1.69h-40.437c-1.98 0-3.92.59-5.57 1.69-20.83 13.91-34.54 37.64-34.54 64.57zm56.497 0c0-13.83 8.11-25.05 18.12-25.05s18.12 11.22 18.12 25.05c0 13.84-8.11 25.05-18.12 25.05s-18.12-11.21-18.12-25.05z" fill="#ffab66"/><path d="m363.678 245.899c0 5.733 2.919 10.786 7.354 13.747.351.234.764.36 1.186.36h5.55c.424 0 .837-.126 1.188-.36 4.433-2.962 7.354-8.014 7.354-13.747s-2.921-10.786-7.354-13.747c-.351-.234-.764-.36-1.188-.36h-5.55c-.422 0-.835.126-1.186.36-4.435 2.961-7.354 8.014-7.354 13.747z" fill="#ff6c6c"/><g><path d="m221.965 220.09v34h23.893v12.619c0 2.761 2.239 5 5 5h23.356c2.761 0 5-2.239 5-5v-12.619h21.248v12.619c0 2.761 2.239 5 5 5h50.163v-51.619z" fill="#ffab66"/><path d="m279.214 254.09v12.619c0 2.761-2.239 5-5 5h-23.356c-2.761 0-5-2.239-5-5v-12.619z" fill="#ffc599"/><path d="m346.109 254.09v17.619h-40.647c-2.761 0-5-2.239-5-5v-12.619z" fill="#ff9d33"/><path d="m279.214 239.09v15h21.248v-15c0-2.761-2.239-5-5-5h-11.248c-2.762 0-5 2.238-5 5z" fill="#ff6c6c"/><path d="m240.858 234.09h-18.893v20h23.893v-15c0-2.762-2.239-5-5-5z" fill="#ff6c6c"/><g fill="#ff8b00"><circle cx="313.985" cy="240.09" r="5"/><circle cx="331.001" cy="240.09" r="5"/></g></g></g></g><g><g><circle cx="136.669" cy="398.936" fill="#ff9d33" r="73.132"/><path d="m136.669 454.624c-30.706 0-55.688-24.981-55.688-55.688s24.982-55.688 55.688-55.688 55.687 24.981 55.687 55.688-24.981 55.688-55.687 55.688z" fill="#ffab66"/></g><g><path d="m125.383 433.239c-2.557 0-5.113-.975-7.064-2.926l-19.024-19.023c-3.902-3.901-3.902-10.227 0-14.129 3.901-3.901 10.226-3.902 14.129 0l11.959 11.959 34.718-34.718c3.903-3.901 10.228-3.901 14.129 0 3.902 3.902 3.902 10.227 0 14.129l-41.782 41.782c-1.951 1.951-4.508 2.926-7.065 2.926z" fill="#fff"/></g></g><g><g><g><g><g><path d="m249.741 148.499c-2.762 0-5-2.239-5-5v-16.791c0-3.238-2.635-5.873-5.873-5.873s-5.872 2.634-5.872 5.873v16.791c0 2.761-2.238 5-5 5s-5-2.239-5-5v-16.791c0-8.752 7.12-15.873 15.872-15.873s15.873 7.121 15.873 15.873v16.791c0 2.761-2.239 5-5 5z" fill="#b3b3ff"/></g><g><path d="m253.163 175.795h-28.671c-3.314 0-6-2.686-6-6v-26.409c0-3.314 2.686-6 6-6h28.671c3.314 0 6 2.686 6 6v26.409c0 3.313-2.686 6-6 6z" fill="#6c6cff"/></g></g><circle cx="238.827" cy="158.601" fill="#2c27ff" r="5"/></g><path d="m266.739 156.209-7.903 2.296c-1.863.541-3.736-.82-3.797-2.758l-.259-8.226-4.625-6.807c-1.09-1.604-.375-3.806 1.45-4.463l7.743-2.788 5.045-6.503c1.189-1.533 3.504-1.533 4.693 0l5.045 6.503 7.743 2.788c1.825.657 2.54 2.859 1.45 4.463l-4.625 6.807-.259 8.226c-.061 1.939-1.934 3.3-3.797 2.758z" fill="#ffab66"/></g></g><g><g><g><path d="m320.563 390.71h-53.028c-2.761 0-5-2.239-5-5 0-2.761 2.239-5 5-5h53.028c2.761 0 5 2.239 5 5 0 2.762-2.238 5-5 5z" fill="#ffab66"/><g><path d="m320.563 408.449h-53.028c-2.761 0-5-2.239-5-5 0-2.761 2.239-5 5-5h53.028c2.761 0 5 2.239 5 5 0 2.761-2.238 5-5 5z" fill="#ffab66"/></g></g></g><g><path d="m325.563 338.733c0-9.161-7.453-16.613-16.613-16.613s-16.613 7.453-16.613 16.613c0 4.518 1.818 8.615 4.755 11.613-2.936 2.998-4.755 7.095-4.755 11.613 0 2.761 2.238 5 5 5s5-2.239 5-5c0-3.646 2.967-6.613 6.613-6.613s6.613 2.967 6.613 6.613c0 2.761 2.238 5 5 5s5-2.239 5-5c0-4.518-1.818-8.615-4.755-11.613 2.937-2.998 4.755-7.096 4.755-11.613zm-16.613-6.614c3.646 0 6.613 2.967 6.613 6.613s-2.967 6.613-6.613 6.613-6.613-2.967-6.613-6.613 2.967-6.613 6.613-6.613z" fill="#ff6c6c"/></g></g></g><g fill="#ff4d4d"><circle cx="266.739" cy="72.933" r="5"/><circle cx="247.557" cy="72.933" r="5"/></g></g><path d="m56.25 331.2c-2.761 0-5-2.239-5-5 0-3.033-2.467-5.5-5.5-5.5-2.761 0-5-2.239-5-5s2.239-5 5-5c3.033 0 5.5-2.467 5.5-5.5 0-2.761 2.239-5 5-5s5 2.239 5 5c0 3.033 2.467 5.5 5.5 5.5 2.761 0 5 2.239 5 5s-2.239 5-5 5c-3.033 0-5.5 2.467-5.5 5.5 0 2.761-2.239 5-5 5z" fill="#ff6c6c"/><path d="m416.326 384.608c-2.761 0-5-2.239-5-5 0-3.033-2.467-5.5-5.5-5.5-2.761 0-5-2.239-5-5s2.239-5 5-5c3.033 0 5.5-2.467 5.5-5.5 0-2.761 2.239-5 5-5s5 2.239 5 5c0 3.033 2.467 5.5 5.5 5.5 2.761 0 5 2.239 5 5s-2.239 5-5 5c-3.033 0-5.5 2.467-5.5 5.5 0 2.762-2.239 5-5 5z" fill="#ff9d33"/><path d="m76.026 128.59c-2.761 0-5-2.239-5-5 0-3.033-2.467-5.5-5.5-5.5-2.761 0-5-2.239-5-5s2.239-5 5-5c3.033 0 5.5-2.467 5.5-5.5 0-2.761 2.239-5 5-5s5 2.239 5 5c0 3.033 2.467 5.5 5.5 5.5 2.761 0 5 2.239 5 5s-2.239 5-5 5c-3.032 0-5.5 2.467-5.5 5.5 0 2.761-2.238 5-5 5z" fill="#ff6c6c"/><path d="m71.95 287.754c-1.28 0-2.559-.488-3.536-1.464-1.953-1.953-1.953-5.119 0-7.071l10-10c1.953-1.952 5.118-1.952 7.071 0 1.953 1.953 1.953 5.119 0 7.071l-10 10c-.976.976-2.255 1.464-3.535 1.464z" fill="#ff9d33"/><path d="m400.826 141.738c-1.28 0-2.559-.488-3.536-1.464-1.953-1.953-1.953-5.119 0-7.071l10-10c1.953-1.952 5.118-1.952 7.071 0 1.953 1.953 1.953 5.119 0 7.071l-10 10c-.976.976-2.255 1.464-3.535 1.464z" fill="#6c6cff"/></g><g fill="#00c"><path d="m439.446 245.899c0-16.569-10.372-30.05-23.12-30.05s-23.12 13.48-23.12 30.05c0 16.851 10.156 30.05 23.12 30.05s23.12-13.199 23.12-30.05zm-36.24 0c0-10.868 6.008-20.05 13.12-20.05s13.12 9.182 13.12 20.05-6.008 20.05-13.12 20.05-13.12-9.182-13.12-20.05z"/><path d="m430.61 177.168c-2.483-1.655-5.372-2.529-8.354-2.529h-40.438c-2.976 0-5.861.875-8.347 2.532-2.55 1.703-4.998 3.55-7.335 5.523v-107.047c0-19.299-15.701-35-35-35h-184.47c-19.299 0-35 15.701-35 35v223.216c0 2.761 2.239 5 5 5s5-2.239 5-5v-223.216c0-13.785 11.215-25 25-25h184.471c13.785 0 25 11.215 25 25v117.084c-5.628 6.689-10.213 14.244-13.483 22.358h-32.768c-2.761 0-5 2.239-5 5s2.239 5 5 5h36.224c2.121 0 4.011-1.338 4.716-3.338 5.181-14.702 15.196-27.581 28.197-36.262.834-.557 1.802-.851 2.797-.851h40.438c1.001 0 1.972.294 2.802.848 20.236 13.52 32.318 36.104 32.318 60.412s-12.082 46.893-32.312 60.409c-.835.557-1.806.851-2.808.851h-40.438c-.995 0-1.962-.294-2.793-.848-13.004-8.684-23.02-21.563-28.201-36.265-.705-2-2.595-3.338-4.716-3.338h-40.647v-12.617c0-2.761-2.239-5-5-5h-21.248c-2.761 0-5 2.239-5 5v12.619h-23.356v-12.619c0-2.761-2.239-5-5-5h-18.893v-24h54.111c2.761 0 5-2.239 5-5s-2.239-5-5-5h-20.239v-8.418c0-5.514-4.486-10-10-10h-23.872c-5.514 0-10 4.486-10 10v98.656c0 5.514 4.486 10 10 10h23.872c5.514 0 10-4.486 10-10v-28.62h13.376c5.514 0 10-4.486 10-10v-7.619h11.248v7.619c0 5.514 4.486 10 10 10h37.192c3.27 8.114 7.855 15.668 13.483 22.358v117.286c0 13.785-11.215 25-25 25h-128.904c7.937-12.225 12.568-26.786 12.568-42.416 0-43.082-35.05-78.132-78.132-78.132s-78.131 35.05-78.131 78.132 35.05 78.132 78.131 78.132c22.93 0 43.583-9.931 57.889-25.716h136.579c19.299 0 35-15.701 35-35v-107.248c2.339 1.974 4.788 3.822 7.339 5.526 2.483 1.655 5.368 2.529 8.343 2.529h40.438c2.981 0 5.869-.875 8.358-2.533 23.019-15.379 36.762-41.072 36.762-68.728s-13.744-53.347-36.767-68.73zm-203.645 29.504h23.872l.001 8.418h-23.873zm0 98.656v-46.238h13.893v7.619c0 5.509 4.477 9.99 9.984 9.999l.002 28.62zm-158.428 93.609c0-37.568 30.563-68.132 68.131-68.132s68.132 30.564 68.132 68.132-30.564 68.132-68.132 68.132-68.131-30.565-68.131-68.132z"/></g></g></svg>