<svg id="Capa_1" enable-background="new 0 0 512 512" height="512" viewBox="0 0 512 512" width="512" xmlns="http://www.w3.org/2000/svg" xmlns:xlink="http://www.w3.org/1999/xlink"><linearGradient id="SVGID_1_" gradientUnits="userSpaceOnUse" x1="157.745" x2="480.147" y1="369.357" y2="46.956"><stop offset=".0485" stop-color="#d2deff"/><stop offset=".9993" stop-color="#dcfdee"/></linearGradient><g><g><path d="m481.906 136.533c19.934-43.573-1.295-101.32-41.675-125.769-80.214-45.52-107.839 66.806-172.21 86.891-60.156 18.77-121.983-11.649-182.087-16.323-73.997-5.754-79.592 92.244-35.701 132.45 44.189 40.48 115.037 4.538 160.569 35.784 38.764 26.601 26.914 81.547 23.225 122.39-13.161 145.722 147.421 184.797 226.112 83.594 17.403-22.382 20.321-56.144 5.157-80.101-15.217-24.041-45.471-34.557-62.844-57.089-25.264-32.767-15.057-82.99 12.955-113.442 21.676-23.565 53.179-39.269 66.499-68.385z" fill="url(#SVGID_1_)"/></g><g><g><path d="m444.915 280c0-37.949-11.198-73.278-30.458-102.88 13.855-10.285 22.836-26.765 22.836-45.346 0-31.172-25.27-56.443-56.443-56.443-22.019 0-41.08 12.617-50.383 31.008-22.851-9.812-48.022-15.254-74.467-15.254-71.426 0-133.586 39.643-165.698 98.122-30.53.739-55.056 25.7-55.056 56.408 0 22.645 13.342 42.165 32.588 51.155 8.489 96.478 89.484 172.145 188.166 172.145 29.933 0 58.234-6.973 83.384-19.365 10.312 11.163 25.068 18.159 41.463 18.159 31.173 0 56.443-25.27 56.443-56.443 0-15.381-6.16-29.317-16.137-39.498 15.13-27.172 23.762-58.46 23.762-91.768z" fill="#2626bc" opacity=".1"/><g><circle cx="256" cy="256" fill="#8399fe" r="188.915"/><g><path d="m411.24 363.69c-20.63 29.67-49.54 53.15-83.38 67.08-2.24-6.08-3.46-12.65-3.46-19.5 0-31.18 25.27-56.45 56.45-56.45 11.19 0 21.62 3.26 30.39 8.87z" fill="#6583fe"/></g><path d="m428.23 178.25v.01c-12.83 13.09-15.27 16.03-20.83 21.82-1.79 1.85-2.78 4.32-2.78 6.9v47.58c0 5.51-4.46 9.97-9.96 9.97-2.76 0-5.25 1.11-7.05 2.92-1.81 1.8-2.92 4.29-2.92 7.04v40.61c0 2.644-1.05 5.18-2.92 7.049l-14.32 14.32c-3.9 3.89-10.2 3.89-14.09-.01l-11.06-11.05c-1.87-1.87-4.4-2.92-7.05-2.92h-15.66c-2.644 0-5.18-1.05-7.049-2.92l-4.53-4.53c-3.89-3.9-3.89-10.2 0-14.09l21.44-21.44c1.87-1.87 2.92-4.405 2.92-7.049v-63.73c0-5.501-4.459-9.96-9.96-9.96h-17.8c-2.644 0-5.18 1.05-7.05 2.92l-13.73 13.73c-1.87 1.87-2.92 4.405-2.92 7.049v22.541c0 5.506-4.464 9.97-9.97 9.97h-19.73c-2.644 0-5.18-1.05-7.05-2.92l-13.961-13.96c-1.87-1.87-2.92-4.405-2.92-7.049v-64.841c0-2.644-1.05-5.18-2.92-7.05l-14.47-14.47c-1.87-1.87-4.406-2.92-7.05-2.92h-31.63c-2.65 0-5.18-1.05-7.05-2.92l-28.49-28.48c32.68-27.04 74.62-43.29 120.33-43.29 11.25 0 22.26.98 32.97 2.87l-22.932 22.941c-1.875 1.875-2.928 4.418-2.928 7.07v25.519c0 5.523 4.477 10 10 10h19.559c2.651 0 5.194-1.053 7.069-2.927l13.173-13.166c1.875-1.874 4.418-2.927 7.069-2.927h11.089c5.523 0 10 4.477 10 10v8.97c0 5.523 4.477 10 10 10h11.228c2.652 0 5.196-1.054 7.071-2.929l20.141-20.141c16.061 16.03 29.241 34.94 38.721 55.89z" fill="#01eca5"/><g><path d="m423.57 168.67c-10.35 11.97-25.65 19.55-42.72 19.55-31.17 0-56.44-25.27-56.44-56.45 0-5.31.73-10.44 2.1-15.31h4.56c5.52 0 10 4.48 10 10v8.97c0 5.52 4.48 10 10 10h11.23c2.65 0 5.19-1.05 7.07-2.93l20.14-20.14c13.57 13.55 25.09 29.16 34.06 46.31z" fill="#00d890"/></g><ellipse cx="269.808" cy="198" fill="#00d890" rx="21.093" ry="6.91"/><ellipse cx="347.946" cy="308.773" fill="#00d890" rx="21.093" ry="6.91"/><path d="m285.86 442.57c-9.73 1.55-19.7 2.35-29.86 2.35-39.66 0-76.47-12.23-106.86-33.12l17.001-17.001c1.875-1.875 2.929-4.419 2.929-7.071v-14.848c0-5.523-4.477-10-10-10h-9.03c-5.523 0-10-4.477-10-10v-13.678c0-2.652-1.054-5.196-2.929-7.071l-17.832-17.832c-1.875-1.875-4.419-2.929-7.071-2.929h-36.878c-5.37-17.51-8.25-36.11-8.25-55.37 0-17.7 2.44-34.84 6.99-51.09h62.9c2.65 0 5.19 1.06 7.07 2.93l25.871 25.871c1.875 1.875 2.929 4.419 2.929 7.071v25.706c0 2.652 1.054 5.196 2.929 7.071l12.841 12.841c1.87 1.87 4.41 2.93 7.07 2.93h25.618c2.652 0 5.196 1.054 7.071 2.929l31.011 31.011c3.9 3.91 3.9 10.24 0 14.14l-22.69 22.7c-1.88 1.87-2.93 4.42-2.93 7.07v19.148c0 2.652 1.054 5.196 2.929 7.071z" fill="#01eca5"/><g><path d="m148.13 245.61c0 31.18-25.27 56.45-56.44 56.45-6.98 0-13.65-1.27-19.82-3.58-3.13-13.66-4.79-27.88-4.79-42.48 0-17.7 2.44-34.84 6.99-51.09h56.72c10.69 10.27 17.34 24.71 17.34 40.7z" fill="#00d890"/></g><ellipse cx="190.564" cy="335.871" fill="#00d890" rx="21.093" ry="6.91"/></g><g><path d="m213.928 252.347c-12.9-12.916-33.83-12.915-46.729.001-12.798 12.815-12.701 34.173.209 46.875.097.096.195.191.294.286 10.091 9.69 16.912 22.283 19.537 36.024.7 3.667 5.95 3.667 6.651 0 2.625-13.741 9.445-26.334 19.536-36.023.099-.095.197-.19.295-.287 12.909-12.703 13.006-34.061.207-46.876z" fill="#ff7eb8"/><g><circle cx="190.564" cy="275.86" fill="#fff" r="20"/></g></g><g><path d="m371.31 224.051c-12.9-12.916-33.83-12.915-46.729.001-12.798 12.815-12.701 34.173.209 46.875.097.096.195.191.294.286 10.091 9.69 16.912 22.283 19.537 36.024.7 3.667 5.95 3.667 6.651 0 2.625-13.741 9.445-26.334 19.536-36.023.099-.095.197-.19.295-.287 12.908-12.703 13.006-34.061.207-46.876z" fill="#ff7eb8"/><g><circle cx="347.946" cy="247.564" fill="#fff" r="20"/></g></g><g><path d="m293.173 113.592c-12.9-12.916-33.83-12.915-46.729.001-12.798 12.815-12.701 34.173.209 46.875.097.096.195.191.294.286 10.091 9.69 16.912 22.283 19.537 36.024.7 3.667 5.95 3.667 6.651 0 2.625-13.741 9.445-26.334 19.536-36.023.099-.095.197-.19.295-.287 12.908-12.704 13.005-34.062.207-46.876z" fill="#ff7eb8"/><g><circle cx="269.808" cy="137.104" fill="#fff" r="20"/></g></g><g><g><circle cx="380.85" cy="107.774" fill="#d2deff" r="56.443"/></g><g><path d="m419.749 148.68c-10.13 9.62-23.82 15.54-38.9 15.54s-28.76-5.91-38.89-15.53c.56-1.05 1.42-1.93 2.47-2.53l28.41-16.12v-9.68h16.02v9.68l28.41 16.12c1.06.6 1.91 1.48 2.48 2.52z" fill="#9fb0fe"/></g><g><g><path d="m361.011 92.351.706 14.63c.493 10.208 8.913 18.232 19.133 18.232 10.22 0 18.64-8.024 19.133-18.232l.706-14.63c.547-11.332-8.494-20.819-19.839-20.819-11.345 0-20.385 9.487-19.839 20.819z" fill="#b7c5ff"/></g></g></g><g><g><g><circle cx="91.689" cy="221.615" fill="#dcfdee" r="56.443"/></g><g><path d="m130.587 262.521c-10.13 9.62-23.82 15.54-38.9 15.54s-28.76-5.91-38.89-15.53c.56-1.05 1.42-1.93 2.47-2.53l28.41-16.12v-9.68h16.02v9.68l28.41 16.12c1.06.6 1.91 1.48 2.48 2.52z" fill="#01eca5"/></g><g><g><path d="m71.85 206.193.706 14.63c.493 10.208 8.913 18.232 19.133 18.232 10.22 0 18.64-8.024 19.133-18.232l.706-14.63c.547-11.332-8.494-20.819-19.839-20.819-11.345-.001-20.386 9.486-19.839 20.819z" fill="#02ffb3"/></g></g></g><g><g><circle cx="380.847" cy="387.266" fill="#ffdbed" r="56.443"/></g><g><path d="m419.745 428.173c-10.13 9.62-23.82 15.54-38.9 15.54s-28.76-5.91-38.89-15.53c.56-1.05 1.42-1.93 2.47-2.53l28.41-16.12v-9.68h16.02v9.68l28.41 16.12c1.06.6 1.91 1.48 2.48 2.52z" fill="#ff7eb8"/></g><g><g><path d="m361.008 371.844.706 14.63c.493 10.208 8.913 18.232 19.133 18.232 10.22 0 18.64-8.024 19.133-18.232l.706-14.63c.547-11.332-8.494-20.819-19.839-20.819-11.346 0-20.386 9.487-19.839 20.819z" fill="#ffa8cf"/></g></g><path d="m449.92 256c0-36.144-9.97-71.258-28.865-101.823 12.995-11.274 21.238-27.889 21.238-46.404 0-33.88-27.563-61.442-61.443-61.442s-61.443 27.563-61.443 61.442 27.563 61.443 61.443 61.443c11.767 0 22.768-3.331 32.12-9.09 17.641 28.822 26.949 61.865 26.949 95.874 0 29.166-6.954 57.987-20.149 83.764-10.605-8.706-24.164-13.94-38.924-13.94-33.88 0-61.443 27.563-61.443 61.443 0 13.496 4.427 26.186 12.043 36.497-23.73 10.717-49.077 16.156-75.446 16.156-91.759 0-170.305-69.454-182.305-159.556 5.694 1.747 11.735 2.694 17.994 2.694 33.88 0 61.443-27.563 61.443-61.442 0-31.485-23.808-57.5-54.365-61.023 33.293-54.792 92.798-88.513 157.233-88.513 15.346 0 30.638 1.906 45.45 5.667 2.68.68 5.397-.939 6.077-3.616s-.939-5.397-3.616-6.077c-15.617-3.964-31.736-5.974-47.911-5.974-69.855 0-134.212 37.588-168.679 98.264-31.847 2.25-57.075 28.861-57.075 61.271 0 23.568 13.345 44.067 32.87 54.37 4.816 47.032 26.608 90.522 61.583 122.718 35.876 33.027 82.507 51.217 131.301 51.217 28.828 0 56.501-6.174 82.324-18.322 7.308 7.022 16.394 12.299 26.675 15.037 2.666.707 5.408-.876 6.118-3.545s-.876-5.408-3.545-6.119c-22.473-5.984-38.168-26.424-38.168-49.704 0-28.366 23.077-51.443 51.443-51.443s51.443 23.077 51.443 51.443c0 23.425-15.813 43.897-38.454 49.786-2.672.695-4.275 3.425-3.58 6.098.585 2.25 2.614 3.742 4.835 3.742.417 0 .84-.052 1.262-.162 27.046-7.034 45.936-31.487 45.936-59.464 0-15.375-5.69-29.438-15.057-40.226 14.839-27.871 22.688-59.261 22.688-91.041zm-120.513-148.227c0-28.365 23.077-51.442 51.443-51.442s51.443 23.077 51.443 51.442c0 28.366-23.077 51.443-51.443 51.443s-51.443-23.076-51.443-51.443zm-289.161 113.842c0-28.366 23.077-51.443 51.443-51.443s51.443 23.077 51.443 51.443c0 28.365-23.077 51.442-51.443 51.442s-51.443-23.077-51.443-51.442z" fill="#2626bc"/></g></g></g><g><path d="m148.13 62.331c-1.28 0-2.559-.488-3.536-1.465l-10.5-10.5c-1.953-1.952-1.953-5.118 0-7.07l10.5-10.5c1.953-1.953 5.118-1.953 7.071 0l10.5 10.5c1.953 1.952 1.953 5.118 0 7.07l-10.5 10.5c-.976.977-2.255 1.465-3.535 1.465zm-3.429-15.5 3.429 3.429 3.429-3.429-3.429-3.429z" fill="#02ffb3"/></g><g><path d="m472.535 294.855c-1.28 0-2.559-.488-3.536-1.465l-10.5-10.5c-1.953-1.952-1.953-5.118 0-7.07l10.5-10.5c1.953-1.953 5.118-1.953 7.071 0l10.5 10.5c1.953 1.952 1.953 5.118 0 7.07l-10.5 10.5c-.976.977-2.256 1.465-3.535 1.465zm-3.429-15.5 3.429 3.429 3.429-3.429-3.429-3.429z" fill="#02ffb3"/></g><g><path d="m111.551 101.331c-1.28 0-2.559-.488-3.536-1.465l-10.5-10.5c-1.953-1.952-1.953-5.118 0-7.07l10.5-10.5c1.953-1.953 5.118-1.953 7.071 0l10.5 10.5c1.953 1.952 1.953 5.118 0 7.07l-10.5 10.5c-.976.977-2.255 1.465-3.535 1.465zm-3.428-15.5 3.429 3.429 3.429-3.429-3.429-3.429z" fill="#6583fe"/></g><g><path d="m462.535 341.33c-1.28 0-2.559-.488-3.536-1.465-1.953-1.952-1.953-5.118 0-7.07l10-10c1.953-1.953 5.118-1.953 7.071 0 1.953 1.952 1.953 5.118 0 7.07l-10 10c-.976.977-2.256 1.465-3.535 1.465z" fill="#ff7eb8"/></g><g><path d="m114.978 454.92c-1.28 0-2.559-.488-3.536-1.465-1.953-1.952-1.953-5.118 0-7.07l10-10c1.953-1.953 5.118-1.953 7.071 0 1.953 1.952 1.953 5.118 0 7.07l-10 10c-.976.977-2.256 1.465-3.535 1.465z" fill="#ff7eb8"/></g></g></g></svg>