<svg id="Capa_1" enable-background="new 0 0 512 512" height="512" viewBox="0 0 512 512" width="512" xmlns="http://www.w3.org/2000/svg" xmlns:xlink="http://www.w3.org/1999/xlink"><linearGradient id="SVGID_1_" gradientUnits="userSpaceOnUse" x1="65.483" x2="405.135" y1="455.411" y2="50.629"><stop offset="0" stop-color="#fff" stop-opacity="0"/><stop offset=".2532" stop-color="#eef" stop-opacity=".403"/><stop offset=".629" stop-color="#d9d9ff"/></linearGradient><g><g><path d="m488.514 218.085c-30.706-80.231-103.012-76.269-107.727-120.509-9.232-86.615-29.828-98.222-46.599-97.549-26.827 1.077-66.332 38.387-106.664 35.35-65.639-4.943-115.02-72.434-179.333-6.116-59.691 61.551 18.418 144.839-12.512 208.782-15.442 31.922-34.689 80.576-24.923 119.022 31.041 122.202 128.891 162.044 274.811 153.924 201.861-11.234 246.896-178.069 202.947-292.904z" fill="url(#SVGID_1_)"/></g><g><g><g><g><g><path d="m459.11 237.66h-39.406c2.29-9.315 3.561-17.996 3.561-25.813 0-90.306-74.887-163.514-167.265-163.514s-167.265 73.208-167.265 163.514c0 7.817 1.272 16.498 3.561 25.813h-39.406c-5.52 0-10 4.48-10 10v153.49c0 5.52 4.48 10 10 10h109.52c1.9 0 3.67-.53 5.18-1.44 2.89-1.76 4.82-4.93 4.82-8.56v-8.221c30.411 45.295 60.814 84.613 75.126 102.678 4.289 5.413 12.639 5.413 16.928 0 14.312-18.064 44.715-57.383 75.126-102.678v8.221c0 3.63 1.93 6.8 4.82 8.56 1.51.91 3.28 1.44 5.18 1.44h109.52c5.52 0 10-4.48 10-10v-153.49c0-5.52-4.48-10-10-10z" fill="#00c" opacity=".1"/><path d="m172.41 223.66v153.49c0 3.63-1.93 6.8-4.82 8.56-1.51.91-3.28 1.44-5.18 1.44h-109.52c-5.52 0-10-4.48-10-10v-153.49c0-5.52 4.48-10 10-10h109.52c5.53 0 10 4.48 10 10z" fill="#fff"/><path d="m172.41 223.66v153.49c0 3.63-1.93 6.8-4.82 8.56-39.61-59.85-77.79-128.5-78.84-172.05h73.66c5.53 0 10 4.48 10 10z" fill="#d9d9ff"/></g><g><g><path d="m88.943 254.155h-10.583c-2.761 0-5-2.239-5-5s2.239-5 5-5h10.583c2.761 0 5 2.239 5 5s-2.239 5-5 5z" fill="#ff6c6c"/></g><g><path d="m141.94 269.54c0 2.76-2.24 5-5 5h-58.58c-2.76 0-5-2.24-5-5s2.24-5 5-5h58.58c2.76 0 5 2.24 5 5z" fill="#ffab66"/></g><g><path d="m141.94 289.92c0 2.76-2.24 5-5 5h-58.58c-2.76 0-5-2.24-5-5s2.24-5 5-5h58.58c2.76 0 5 2.24 5 5z" fill="#ffab66"/></g><path d="m141.94 290.202c0 2.76-2.24 5-5 5h-22.57c-1.65-3.36-3.23-6.69-4.75-10h27.32c2.76 0 5 2.24 5 5z" fill="#ff9d33"/><path d="m136.94 274.54h-31.93c-1.44-3.38-2.8-6.71-4.07-9.718h36c2.76-.282 5 1.958 5 4.718s-2.24 5-5 5z" fill="#ff9d33"/><g><path d="m141.94 331.09c0 2.76-2.24 5-5 5h-40.58c-2.76 0-5-2.24-5-5s2.24-5 5-5h40.58c2.76 0 5 2.24 5 5z" fill="#ffab66"/><g fill="#ff6c6c"><circle cx="78.36" cy="331.088" r="5"/><circle cx="78.36" cy="351.47" r="5"/></g></g><g><path d="m136.943 356.47h-40.583c-2.761 0-5-2.239-5-5s2.239-5 5-5h40.583c2.761 0 5 2.239 5 5s-2.239 5-5 5z" fill="#ffab66"/></g></g></g><g><g><path d="m469.11 223.66v153.49c0 5.52-4.48 10-10 10h-109.52c-1.9 0-3.67-.53-5.18-1.44-2.89-1.76-4.82-4.93-4.82-8.56v-153.49c0-5.52 4.47-10 10-10h109.52c5.52 0 10 4.48 10 10z" fill="#fff"/><path d="m423.25 213.66c-1.05 43.55-39.23 112.2-78.84 172.05-2.89-1.76-4.82-4.93-4.82-8.56v-153.49c0-5.52 4.47-10 10-10z" fill="#d9d9ff"/></g><g><g><path d="m393.64 254.155h-18.583c-2.761 0-5-2.239-5-5s2.239-5 5-5h18.583c2.761 0 5 2.239 5 5s-2.239 5-5 5z" fill="#ff6c6c"/></g><g><path d="m438.64 269.54c0 2.76-2.24 5-5 5h-58.58c-2.76 0-5-2.24-5-5s2.24-5 5-5h58.58c2.76 0 5 2.24 5 5z" fill="#ffab66"/></g><g><path d="m438.64 289.92c0 2.76-2.24 5-5 5h-58.58c-2.76 0-5-2.24-5-5s2.24-5 5-5h58.58c2.76 0 5 2.24 5 5z" fill="#ffab66"/></g><path d="m375.06 284.92h27.32c-1.52 3.31-3.1 6.64-4.75 10h-22.57c-2.76 0-5-2.24-5-5s2.24-5 5-5z" fill="#ff9d33"/><path d="m411.06 264.54c-1.27 3.29-2.63 6.62-4.07 10h-31.93c-2.76 0-5-2.24-5-5s2.24-5 5-5z" fill="#ff9d33"/><g><path d="m433.64 336.088h-40.583c-2.761 0-5-2.239-5-5s2.239-5 5-5h40.583c2.761 0 5 2.239 5 5s-2.239 5-5 5z" fill="#ffab66"/><circle cx="375.057" cy="331.088" fill="#ff4d4d" r="5"/><circle cx="375.057" cy="351.47" fill="#ff6c6c" r="5"/></g><g><path d="m433.64 356.47h-40.583c-2.761 0-5-2.239-5-5s2.239-5 5-5h40.583c2.761 0 5 2.239 5 5s-2.239 5-5 5z" fill="#ffab66"/></g></g></g></g><g><path d="m412.151 190.645c0 74.494-116.511 230.003-148.249 270.983-4.004 5.17-11.799 5.17-15.803 0-31.739-40.98-148.25-196.489-148.25-270.983 0-86.24 69.911-156.151 156.151-156.151s156.151 69.912 156.151 156.151z" fill="#ff4d4d"/><path d="m355.3 196.394-20.368-3.236c-1.526-4.948-3.508-9.696-5.891-14.199l12.12-16.699c2.595-3.575 2.206-8.506-.918-11.629l-17.344-17.344c-3.124-3.123-8.054-3.513-11.629-.918l-16.699 12.12c-4.503-2.383-9.251-4.365-14.199-5.891l-3.236-20.368c-.693-4.363-4.455-7.574-8.872-7.574h-24.529c-4.417 0-8.179 3.211-8.872 7.574l-3.236 20.367c-4.949 1.526-9.697 3.508-14.2 5.891l-16.698-12.12c-3.575-2.595-8.506-2.206-11.629.918l-17.344 17.344c-3.124 3.123-3.513 8.054-.918 11.629l12.121 16.699c-2.383 4.503-4.364 9.25-5.89 14.198l-20.369 3.236c-4.363.693-7.574 4.455-7.574 8.872v24.529c0 4.417 3.211 8.179 7.574 8.872l20.368 3.236c1.526 4.948 3.508 9.696 5.891 14.199l-12.12 16.698c-2.595 3.575-2.206 8.506.918 11.629l17.344 17.344c3.123 3.123 8.054 3.513 11.629.918l16.698-12.12c4.503 2.383 9.251 4.365 14.199 5.891l3.236 20.368c.693 4.363 4.455 7.574 8.872 7.574h24.529c4.417 0 8.179-3.211 8.872-7.574l3.236-20.369c4.948-1.526 9.695-3.508 14.198-5.89l16.699 12.121c3.575 2.595 8.506 2.206 11.629-.918l17.344-17.344c3.123-3.124 3.513-8.054.918-11.629l-12.12-16.698c2.383-4.503 4.365-9.251 5.891-14.2l20.367-3.236c4.363-.693 7.574-4.455 7.574-8.872v-24.529c.002-4.415-3.209-8.177-7.572-8.87zm-56.125 21.141c0 23.839-19.33 43.169-43.18 43.169-23.839 0-43.169-19.33-43.169-43.169 0-23.85 19.33-43.18 43.169-43.18 23.85 0 43.18 19.33 43.18 43.18z" fill="#ff2c2c"/><g><path d="m299.175 193.535c0 23.839-19.33 43.169-43.18 43.169-23.839 0-43.169-19.33-43.169-43.169 0-23.85 19.33-43.18 43.169-43.18 23.85 0 43.18 19.33 43.18 43.18z" fill="#fff"/></g><g><path d="m299.18 193.53c0 4.16-.59 8.19-1.69 12-5.2-18-21.81-31.18-41.49-31.18s-36.28 13.18-41.48 31.18c-1.1-3.81-1.69-7.84-1.69-12 0-23.84 19.33-43.18 43.17-43.18s43.18 19.34 43.18 43.18z" fill="#d9d9ff"/></g><path d="m459.111 208.661h-22.891c-2.762 0-5 2.238-5 5s2.238 5 5 5h22.891c2.757 0 5 2.243 5 5v153.486c0 2.757-2.243 5-5 5h-109.524c-2.757 0-5-2.243-5-5v-20.618c37.333-58.092 72.563-124.006 72.563-165.884 0-88.859-72.292-161.151-161.15-161.151-88.859 0-161.151 72.292-161.151 161.151 0 5.486.613 11.5 1.813 18.015h-43.772c-8.271 0-15 6.729-15 15v153.49c0 8.271 6.729 15 15 15h109.52c8.271 0 15-6.729 15-15v-5.357c27.577 41.552 54.539 77.148 66.735 92.896 2.862 3.696 7.183 5.815 11.854 5.815s8.992-2.119 11.854-5.815c13.845-17.876 40.074-52.661 66.732-92.848v5.306c0 8.271 6.729 15 15 15h109.524c8.271 0 15-6.729 15-15v-153.486c.002-8.271-6.726-15-14.998-15zm-199.163 249.905c-.954 1.232-2.394 1.938-3.948 1.938s-2.994-.706-3.948-1.938c-15.639-20.192-55.711-73.221-89.962-129.382-1.438-2.358-4.515-3.104-6.872-1.665-2.357 1.438-3.103 4.515-1.665 6.872 4.541 7.446 9.184 14.833 13.858 22.1v20.659c0 2.757-2.243 5-5 5h-109.521c-2.757 0-5-2.243-5-5v-153.49c0-2.757 2.243-5 5-5h45.983c6.204 24.314 19.572 54.688 39.982 90.758 1.36 2.404 4.412 3.25 6.814 1.89 2.403-1.359 3.249-4.41 1.889-6.813-28.339-50.085-42.708-88.39-42.708-113.849 0-83.345 67.806-151.151 151.151-151.151s151.15 67.807 151.15 151.151c0 30.355-21.256 80.642-61.471 145.422-33.332 53.693-71.059 103.553-85.732 122.498z" fill="#00c"/><g><path d="m355.3 172.394-20.368-3.236c-1.526-4.948-3.508-9.696-5.891-14.199l12.12-16.699c2.595-3.575 2.206-8.506-.918-11.629l-17.344-17.344c-3.124-3.123-8.054-3.513-11.629-.918l-16.699 12.12c-4.503-2.383-9.251-4.365-14.199-5.891l-3.236-20.368c-.693-4.363-4.455-7.574-8.872-7.574h-24.529c-4.417 0-8.179 3.211-8.872 7.574l-3.236 20.367c-4.949 1.526-9.697 3.508-14.2 5.891l-16.698-12.12c-3.575-2.595-8.506-2.206-11.629.918l-17.344 17.344c-3.124 3.123-3.513 8.054-.918 11.629l12.121 16.699c-2.383 4.503-4.364 9.25-5.89 14.198l-20.369 3.236c-4.363.693-7.574 4.455-7.574 8.872v24.529c0 4.417 3.211 8.179 7.574 8.872l20.368 3.236c1.526 4.948 3.508 9.696 5.891 14.199l-12.12 16.698c-2.595 3.575-2.206 8.506.918 11.629l17.344 17.344c3.123 3.123 8.054 3.513 11.629.918l16.698-12.12c4.503 2.383 9.251 4.365 14.199 5.891l3.236 20.368c.693 4.363 4.455 7.574 8.872 7.574h24.529c4.417 0 8.179-3.211 8.872-7.574l3.236-20.369c4.948-1.526 9.695-3.508 14.198-5.89l16.699 12.121c3.575 2.595 8.506 2.206 11.629-.918l17.344-17.344c3.123-3.124 3.513-8.054.918-11.629l-12.12-16.698c2.383-4.503 4.365-9.251 5.891-14.2l20.367-3.236c4.363-.693 7.574-4.455 7.574-8.872v-24.529c.002-4.415-3.209-8.177-7.572-8.87zm-56.125 21.141c0 23.839-19.33 43.169-43.18 43.169-23.839 0-43.169-19.33-43.169-43.169 0-23.85 19.33-43.18 43.169-43.18 23.85 0 43.18 19.33 43.18 43.18z" fill="#9494ff"/><path d="m253.705 279.742-3.598-22.645c1.94.179 3.903.269 5.888.269 1.987 0 3.956-.091 5.897-.27l-3.598 22.646zm43.051-37.115c3.028-2.518 5.823-5.312 8.34-8.34l13.487 18.581-3.245 3.245zm-103.34 10.242 13.486-18.58c2.518 3.028 5.312 5.822 8.34 8.339l-18.581 13.486zm-23.628-57.044v-4.59l22.646-3.598c-.179 1.941-.27 3.91-.27 5.897 0 1.985.091 3.949.269 5.888zm149.78 3.597c.179-1.939.269-3.902.269-5.887 0-1.988-.091-3.955-.27-5.897l22.645 3.597v4.589zm-14.472-46.648c-2.518-3.028-5.312-5.822-8.34-8.34l18.583-13.488 3.245 3.245zm-111.68-18.582 3.246-3.246 18.581 13.487c-3.028 2.518-5.822 5.312-8.34 8.341zm68.476-4.229c-1.941-.179-3.91-.27-5.897-.27-1.985 0-3.948.091-5.887.269l3.597-22.644h4.589z" fill="#b3b3ff"/></g></g><path d="m141.94 331.372c0 2.76-2.24 4.718-5 4.718h-.35c-1.95-3.34-3.86-6.67-5.74-10h6.09c2.76 0 5 2.522 5 5.282z" fill="#ff9d33"/></g><g><g><path d="m90.877 113.878c-2.761 0-5-2.238-5-5 0-3.492-2.841-6.333-6.333-6.333-2.761 0-5-2.238-5-5s2.239-5 5-5c3.492 0 6.333-2.841 6.333-6.333 0-2.762 2.239-5 5-5s5 2.238 5 5c0 3.492 2.841 6.333 6.333 6.333 2.761 0 5 2.238 5 5s-2.239 5-5 5c-3.492 0-6.333 2.841-6.333 6.333 0 2.762-2.238 5-5 5z" fill="#ffab66"/></g><g><path d="m342.212 455.997c-2.762 0-5-2.238-5-5 0-3.492-2.841-6.334-6.333-6.334-2.762 0-5-2.238-5-5s2.238-5 5-5c3.492 0 6.333-2.841 6.333-6.333 0-2.762 2.238-5 5-5s5 2.238 5 5c0 3.492 2.842 6.333 6.334 6.333 2.762 0 5 2.238 5 5s-2.238 5-5 5c-3.492 0-6.334 2.842-6.334 6.334 0 2.762-2.238 5-5 5z" fill="#ff6c6c"/></g><g><path d="m401.536 71.865c-2.762 0-5-2.238-5-5 0-3.492-2.842-6.334-6.334-6.334-2.762 0-5-2.238-5-5s2.238-5 5-5c3.492 0 6.334-2.841 6.334-6.333 0-2.762 2.238-5 5-5s5 2.238 5 5c0 3.492 2.841 6.333 6.333 6.333 2.762 0 5 2.238 5 5s-2.238 5-5 5c-3.492 0-6.333 2.842-6.333 6.334 0 2.762-2.238 5-5 5z" fill="#ffab66"/></g><g><path d="m118.62 62.499c-1.28 0-2.559-.488-3.536-1.465l-5.464-5.464-5.464 5.464c-1.953 1.953-5.118 1.953-7.071 0-1.953-1.952-1.953-5.118 0-7.07l9-9c1.953-1.953 5.118-1.953 7.071 0l9 9c1.953 1.952 1.953 5.118 0 7.07-.977.977-2.256 1.465-3.536 1.465z" fill="#8383ff"/></g><g><path d="m155.993 468.017c-1.28 0-2.559-.488-3.536-1.465l-5.464-5.464-5.464 5.464c-1.953 1.953-5.118 1.953-7.071 0-1.953-1.952-1.953-5.118 0-7.07l9-9c1.953-1.953 5.118-1.953 7.071 0l9 9c1.953 1.952 1.953 5.118 0 7.07-.977.976-2.257 1.465-3.536 1.465z" fill="#ffab66"/></g></g></g></g></svg>